<?xml version="1.0" encoding="UTF-8"?>
<svg id="Layer_1" xmlns="http://www.w3.org/2000/svg" baseProfile="tiny" version="1.2" viewBox="0 0 275.9 82">
  <!-- Generator: Adobe Illustrator 29.4.0, SVG Export Plug-In . SVG Version: 2.1.0 Build 152)  -->
  <path d="M184.9,54.5v-1.7c-.1-.6-.1-1.3-.3-2-.4-1.5-.8-3-1.4-4.6-.6-1.6-1.5-3.2-2.6-4.5-1.8-2.1-4.2-3.8-6.7-5-1.1-.6-2.3-.8-3.7-.8s-1.6.2-2,1.5c-.4,1.2-.8,2.5-1.1,3.9-.4,1.6-.7,3.4-1.1,5-.4,1.6-.8,3.3-1.1,4.9-.3,1.5-.6,2.9-.9,4.5-.3,1.6-.6,3.3-.9,4.9-.2,1-.3,2.1-.5,3.2-.3,1.9-.7,4-1,6-.3,1.7-.6,3.4-.8,5-.3,1.5-.4,2.9,0,4.5.2.9,1.3,1.8,2.4,1.6.6-.1,1.1-.2,1.7-.4,1.2-.3,2.3-.8,3.5-1.2,1.7-.6,3.4-1.6,4.9-2.7,1.3-.9,2.6-1.9,3.8-3.3,1-1.2,2.1-2.4,3.2-3.8,1.6-2.1,2.6-4.5,3.6-6.9.9-2.5,1.3-5.2,1.3-7.8h0ZM178.6,55.4c-.3,2.9-1.4,5.6-2.9,8-1.1,1.9-2.5,3.6-4.1,5.1s-1.5,1.3-2.3,1.9c-.6.5-1.2.9-1.8,1.4-.1.1-.2.2-.4.2-.2-.8,0-1.5,0-2.2.3-1.9.5-3.8.8-5.6.2-1.4.4-2.8.7-4.3.3-2.1.7-4.2,1.1-6.2.1-.9.4-1.7.6-2.6l1.5-6.1c.2-.9.5-1.7.7-2.7v.2c.8.3,1.5.8,2,1.3,1.4,1.4,2.6,3.2,3.4,5.1.7,2,.9,4.3.7,6.5ZM64.4,45.4c.3-1.3.3-2.6.3-4-.1-1.7-.4-2-2-2.3-.4-.1-.8,0-1.2.3-.6.6-1.2,1.1-1.7,1.7-1.2,1.3-2.3,2.7-3.4,4.2-1.1,1.6-2.4,3.3-3.6,4.9-1.1,1.6-2.1,3.3-3.2,4.9-.2.1-.2.3-.2.4-.2.4-.3.8-.8,1.1-.2-.9-.4-1.6-.6-2.4-.4-1.5-.7-2.9-1.1-4.5-.6-2-1-4.2-1.9-6.1-.2-.4-.4-.8-.7-1.2-.6-.5-1.1-.5-1.7,0-.2.2-.4.4-.5.6-.4.7-.8,1.3-1.1,2-.5,1-1,2.1-1.4,3.2-.7,1.8-1.5,3.7-2.1,5.6-.6,1.7-1,3.6-1.5,5.3-.8,2.7-1.3,5.5-1.7,8.3-.2,1.5-.3,3-.5,4.6-.1.8.3,1.2.9,1.6.6.5,1.2.4,1.8,0,.5-.3.8-.7,1-1.2.3-1.1.7-2.3,1-3.6l.6-2.1c.4-1.4.9-2.9,1.3-4.4.1-.1.1-.3.1-.4.4-1.2.7-2.3,1.1-3.5.1-.4.2-.8.4-1.2l.4-.4c.1.2.1.3.1.4.6,2.2,1,4.6,1.8,6.8.4,1.3,1.2,2.5,2,3.7.7.9,1.6,1.2,2.8.1.6-.6,1-1.4,1.5-2.1.3-.4.4-.8.6-1.2.5-1.1,1.1-2.3,1.7-3.5.2-.4.4-.9.6-1.4.6-1.4,1.3-2.7,2-4.2.4-.8.8-1.6,1.2-2.4.2-.4.5-.9.7-1.3.1-.3.3-.5.4-.8l.4-.2h.1c-.1.2-.1.5-.1.7-.4,1.6-.8,3.3-1.1,5-.4,1.8-.7,3.8-1,5.6-.3,1.6-.5,3.2-.7,4.8,0,.2-.2.5.1.7v.2c-.5,1.3-.2,2.6,0,4,0,.4.2.8.4,1.2.4.7,1.4,1,1.8.5.4-.5.7-1,.9-1.5.3-.7.5-1.5.8-2.3.2-.7.4-1.5.6-2.2.3-1.1.5-2.3.8-3.5.4-1.4.7-2.7,1-4.2.5-2.4.9-5,1.4-7.5.4-1.9.8-3.9.9-5.9v-.7ZM30.3,60v-23c0-.8-1.2-1.8-2-1.6-.7.2-1.4.3-2,.6-.5.2-1,.6-1.3,1-.8,1-1.6,2.1-2.3,3.3-.5.7-1,1.6-1.5,2.4-.4.9-.8,1.8-1.3,2.6-.8,1.3-1.5,2.7-2.2,4.2-.8,1.5-1.5,3.2-2.3,4.7-.5,1.1-1.1,2.3-1.6,3.6-.6,1.4-1.3,2.8-1.9,4.3-.8,1.6-1.5,3.3-2.2,4.9-.7,1.7-1.3,3.6-2.1,5.3-.7,1.5-1.3,3-1.8,4.7-.3,1.1-.2,2.1.3,3.2.5,1.1,1.4,1.1,2.2.5.5-.3.9-.8,1.2-1.3.9-1.6,1.8-3.3,2.6-4.9.9-1.6,1.7-3.3,2.5-4.9.1-.4.3-.7.8-.7s.8-.3,1.2-.4c1.6-.6,3.2-1.2,4.8-1.7,1.1-.4,2.3-.7,3.7-1.1h.2c.1,1,.3,1.9.3,2.9.1,3.2.4,6.3,1.2,9.4.2,1,.7,1.8,1.5,2.3,1.4,1,1.8.4,2.3-.6v-.4c.1-.7.1-1.4.1-2.1v-6c0-2.5-.2-5.1-.2-7.6v-3.4ZM24.5,61.1c-2.2.5-4.5.9-6.6,1.3.1-.4,5.6-11.6,6.2-12.5.2.2.2.5.2.7v4.3c.1,1.3.2,2.6.2,4v2.2ZM84.1,59.2c-.1-1.2-.2-2.3-.3-3.6-.1-1.1-.2-2.3-.3-3.5-.2-1.4-.4-2.9-.6-4.5-.2-1.7-.3-3.6-.5-5.4-.2-1.5-.3-3.2-.5-4.8-.1-.8-.2-1.5-.4-2.3-.1-.5-.4-.9-.9-.9-.8-.1-1.5,0-2.2.5s-1,1.2-1.4,1.9c-1,2-2.1,4.1-3.2,6.1-.9,1.9-1.8,3.8-2.6,5.7-.6,1.3-1.1,2.7-1.7,4.1-.5,1.2-1,2.5-1.5,3.8-.5,1.3-1,2.6-1.5,4-.4,1-.8,2.1-1.1,3.3-.4,1.5-.7,2.9-1.1,4.4-.2.9-.2,1.9-.2,2.8.1.7.5,1.2,1.2,1.5.7.2,1.3.1,1.8-.5.2-.3.4-.6.6-.8.8-.7,1.1-1.8,1.5-2.7.7-1.5,1.4-3.2,2-4.8.1-.4.4-.7.8-.7.9-.3,1.9-.5,2.8-.8,1.3-.4,2.6-.8,4-1.2.2,1.1.3,2.1.5,3.2.2,1.5.4,3,.7,4.6.2,1.1.5,2.1,1.4,2.9.5.4,1,.9,1.7.7.7-.2,1.1-.7,1.3-1.3.3-.6.3-1.2.3-1.8v-2.5c0-.6-.1-1.2-.1-1.8-.2-1.8-.3-3.6-.5-5.4ZM76,56.7c-.8.2-1.6.4-2.5.6v-.4c.6-.6.7-1.4,1-2.1.8-1.9,1.5-4,2.3-6,.3-.7.6-1.4,1-2.1.4,1.6.3,3.3.4,4.9,0,1.6.3,3.1.3,4.8-.9.2-1.7.2-2.5.4ZM119.1,46.1c.2-.6.5-.9,1-.9,2.4-.4,4.8-.8,7.1-1.3,1.8-.4,3.7-.9,5.5-1.3,1.2-.2,2.1-1,2.7-2v-.8c-.3-.8-1-1.1-1.7-1.1h-2c-2.1.2-4.4.4-6.6.6-1.6.1-3.3.3-4.9.6-1.6.3-3.3.6-4.8,1-.5.2-1.1.6-1.6.9-.4,1-.9,1.9-1.1,2.9-.1.5-.2,1-.3,1.4-.3,1.3-.8,2.6-1.1,4.1-.2,1.1-.5,2.3-.7,3.5-.2.8-.3,1.7-.5,2.5-.2,1.1-.3,2.1-.5,3.3-.3,1.5-.5,3-.8,4.6-.2.8-.3,1.6-.4,2.4-.1.9-.3,1.7-.4,2.6-.1,1-.3,2-.3,3.2s-.1,1.9.2,2.8c.3,1.1,1.2,1.7,2.3,1.6.3,0,.6-.1.8-.3.3-.3.6-.7.9-1.1.8-1.2,1-2.7,1.5-4.1.3-.8.4-1.8.6-2.7.4-1.7.7-3.5,1.2-5.1.2-.7.3-1.6.4-2.4,0-.3.1-.6.4-.6.6-.2,1.2-.4,1.8-.6.8-.2,1.6-.6,2.4-.9,1.7-.6,3.5-1.2,5-2.3.5-.4.9-.8.9-1.5s-.2-.9-.6-1.2c-.6-.4-1.2-.4-1.9-.4-1.7.1-3.4.5-5.1.9-.4.1-.8.2-1.3.4l-.2-.3c.2-1,.4-1.8.6-2.6.5-1.8,1-3.7,1.4-5.6ZM227.1,40.9c-.6.1-1.2.4-1.8.6-.6.3-1.2.7-1.7,1.2-.6.6-1.4,1.1-2,1.7-1.3,1.2-2.5,2.4-3.9,3.8s-2.1,2.1-3.2,3.3c-.2.2-.4.5-.8.8v-.2c-.5-.9-.9-1.6-1.3-2.3-.9-1.8-1.9-3.7-3-5.4-.7-1-1.5-1.9-2.4-2.7-.5-.4-1.2-.3-1.5.3-.2.2-.2.4-.2.5-.5.6-.7,1.4-.7,2.1-.1,1.2.1,2.4.6,3.6.5,1.2,1.4,2.3,2.1,3.6.8,1.4,1.7,2.9,2.5,4.4.1.2.1.6.1.8-.1.8-.3,1.6-.4,2.4-.5,2.5-1,5.2-1.4,7.7-.1,1-.2,2-.4,3s0,2-.2,3c-.1.8,0,1.7,0,2.5s.3,2,1.3,2.5c.5.2.9.5,1.4.6,1.2.2,1.5,0,1.9-1,.6-1.3.7-2.6.9-4.1.4-3,1-6.1,1.6-9.1.2-1.2.5-2.4.7-3.8.1-1,.3-1.9.5-2.9,0-.2.1-.4.3-.6,1-1,1.9-2,2.9-3,1.1-1.2,2.2-2.3,3.4-3.6.5-.6,1-1.1,1.5-1.7.2-.1.3-.3.5-.5.6-.7,1.1-1.5,1.8-2.1,1.3-1.2,1.7-2.7,2-4.3.1-.8-.2-1.4-1.2-1.1ZM202.5,65.9c-.2-1.1.1-2.3-.5-3.4v-.2c.1-1.4-.1-2.8-.3-4.3-.2-1.7-.6-3.6-.8-5.3-.2-1.1-.3-2.3-.4-3.5-.1-1.2-.5-2.3-.7-3.5-.1-.6-.5-1.1-.7-1.6-.2-.3-.3-.6-.5-.9-.3-.4-.8-.7-1.3-.6-1,.3-1.8.7-2.2,1.7-.6,1.4-1.3,2.7-1.9,4.2-.6,1.4-1.2,2.8-1.8,4.3-.7,1.8-1.3,3.7-2,5.5-.6,1.5-1.2,2.9-1.7,4.5-.5,1.4-.9,2.7-1.4,4.2-.5,1.3-.9,2.5-1.3,3.8-.4,1.1-.1,2.1.4,3.2.4.7.9,1.3,1.8,1.5.3.1.6,0,.9-.2.5-.4.8-.9,1-1.5.6-1.5,1-2.9,1.5-4.5.3-.7.6-1.2,1.4-1.4.6-.1,1.2-.5,1.8-.8,1.1-.6,2.2-1,3.6-1.5h.2c.1.4.1.8.1,1.2.2,1,.3,2,.5,3s.2,2,1,2.8c.9.9,2.2.9,3-.2.7-1.1.8-2.2.7-3.5-.1-1-.2-2-.3-3ZM192.8,63.1c1-2.7,2-5.4,3-8.1.3.5.7,4,.9,6.9-1.3.4-2.6.8-4,1.2ZM103.7,66.2c-.4-.1-.9-.1-1.3-.1-1.1-.1-2.2.3-3.4.5-1.2.2-2.4.6-3.7.9-.5.1-1,.2-1.6.3,0-.5.2-.8.2-1.2.2-1.4.5-2.9.7-4.5.2-1.5.5-2.9.7-4.4.2-1.6.4-3.3.6-4.9.3-2.6.8-5.2.8-7.8v-1.5c-.1-1.1-.9-1.7-1.7-2.2-.1-.1-.4,0-.6,0-.8.3-1.2.9-1.5,1.6-.2.7-.4,1.5-.6,2.2-.3,1.3-.6,2.7-.8,4.1-.3,1.6-.6,3.3-.8,4.9-.2,1.2-.3,2.5-.5,3.9-.2,1.4-.4,2.9-.6,4.5-.1.5-.2,1.1-.2,1.6-.1.9-.3,1.7-.4,2.6-.2,1.4-.3,2.9-.5,4.4-.1.9-.1,1.8.3,2.7.2.4.5.7,1,.7s1-.1,1.4-.2c1.9-.5,4-1.2,5.9-1.8,2.1-.7,4.3-1.3,6.3-2,1.8-.6,1.9-1.9,1.3-3.5-.2-.4-.5-.8-1-.8ZM138.1,45.7c-.8-.7-2.9-.3-3.2.9,0,.3-.2.6-.3.9-.8,1.4-1.1,2.8-1.5,4.4-.4,1.4-.7,2.9-1,4.5-.5,2.1-.9,4.3-1.3,6.4-.4,1.8-.7,3.7-1,5.5-.2,1.1-.3,2.1-.4,3.2v.8c0,.3-.1.6-.1.9-.1.6.3,1.1.3,1.8-.1,1.4,2.1,2.5,3.4,1.7.2-.2.4-.4.6-.7.2-.2.3-.5.3-.7.2-.6.4-1.2.6-1.8.3-.9.6-1.8.8-2.7.5-2,.9-4.1,1.3-6.1.3-1.8.6-3.8.9-5.6.1-.8.2-1.6.3-2.4.1-.9.3-1.7.4-2.5.1-.6.2-1.3.2-1.9.1-1.2.3-2.4.4-3.7h.1c0-.8-.3-1.6-.6-2.4,0-.1-.2-.3-.2-.3ZM150,63.4c-.7,0-1.4.2-2,.6-1,.7-1.7,1.6-2.1,2.8-.4,1.3-.6,2.5-.2,3.9.3.9.8,1.7,1.7,2,1.2.5,2.4.4,3.5-.4,1.5-1.1,2.5-2.6,2.8-4.7.3-2.1-1.3-4.3-3.7-4.3ZM248.9,1.4c-14.3,0-25.9,11.6-25.9,25.9l.2,3.3c-.1-.1,14.1,12.3,17.1,21.2,2.6.9,5.6,1.4,8.6,1.4,14.3,0,25.9-11.6,25.9-25.9s-11.6-25.9-25.9-25.9ZM262.1,36.8h-.1c.7,2.1-1.9,3.2-3.2,1.1-.8.8-2,1.3-4.1,1-2.8-.3-4.3-3.3-3.5-6.2.8-2.7,4.2-4.9,6.5-3.6.2-4.8,1.2-9.4,2.4-11.6-1.1-.6-3.3.5-5.9,4.2,2.3,2.7,2.2,4.9,1.7,5-.5.1-.8-1.6-2.8-3.4-1.6,2.5-3.3,6-5,10.5-3.4,8.6-13.2,5.7-12.3-1.1.7-5.1,5.1-7.7,8.4-7.9,1.7,0,1.5.8.3,1-5,.8-8.1,8-4,9.2,1.8.5,3.4-2.5,5-5.6,1.7-3.4,3.5-5.9,5-7.8,0,0-2-.7-2.1-.8-2.4-.7-5-.9-7.4-1-1,0-2,0-2.8-.5-1.3-1-1-3,1.1-3.3,2.8-.2,9.2.6,13.1,3.7,5-5.2,8.6-4.5,9.5-3.5,1.3,1.5,0,2.8-.6,3.2-1.5,6-.8,13.2.7,17.4ZM256.2,30.4h0c-1.7-.1-3.2,4.1-1.2,5.8,1,.9,2.3.4,2.7,0,.5-.4,0-5.6-1.5-5.8Z"/>
</svg>