<?xml version="1.0" encoding="UTF-8"?>
<svg id="Layer_1" xmlns="http://www.w3.org/2000/svg" version="1.1" viewBox="0 0 500 168.8">
  <!-- Generator: Adobe Illustrator 29.4.0, SVG Export Plug-In . SVG Version: 2.1.0 Build 152)  -->
  <defs>
    <style>
      .st0 {
        fill: #fff;
      }
    </style>
  </defs>
  <g>
    <path class="st0" d="M191.6,124.8s-5.3,5.8-16.9,5.8-25.4-11.1-25.4-24.7,9.6-24.7,25.4-24.7,16.9,5.8,16.9,5.8l-6.6,8.8s-4.9-3.6-10.2-3.6c-8.1,0-13.7,5.5-13.7,13.7s5.7,13.7,13.7,13.7,10.2-3.6,10.2-3.6l6.6,8.8Z"/>
    <path class="st0" d="M212.3,129.5h-11.4v-47.4h11.4v47.4Z"/>
    <path class="st0" d="M270.5,129.5h-2.6l-30.6-26.1v26.1h-11.4v-47.4h2.6l30.6,25.1v-25h11.4v47.3Z"/>
    <path class="st0" d="M316.4,110.4h-20.8v9.3h26.2v9.9h-37.7v-47.4h37.7v9.9h-26.2v9.3h20.8v9Z"/>
    <path class="st0" d="M332.8,82.2h22.3c12,0,19.7,6.2,19.7,16.5s-3,11.4-7.9,14.1v1l10.7,14.9v.8h-13l-9.3-13.8h-11v13.8h-11.4v-47.4ZM354.6,92.1h-10.4v14.2h10.5c5.3,0,8.2-2.4,8.2-7.1s-3-7.1-8.3-7.1Z"/>
    <path class="st0" d="M419.5,110.4h-20.8v9.3h26.2v9.9h-37.7v-47.4h37.7v9.9h-26.2v9.3h20.8v9Z"/>
    <path class="st0" d="M432,105.9c0-13.6,9.6-24.7,25.3-24.7s25.4,11.1,25.4,24.7-9.6,24.7-25.4,24.7-25.3-11.1-25.3-24.7ZM470.8,105.9c0-8.2-5.9-13.7-13.6-13.7s-13.4,5.4-13.4,13.7,5.9,13.7,13.4,13.7,13.6-5.4,13.6-13.7Z"/>
  </g>
  <path class="st0" d="M120.3,135.2c-1-.2-2-.4-2.9-.6-1-.2-1.9-.5-2.9-.7-1.9-.5-3.8-1.1-5.5-1.7-.9-.3-1.8-.6-2.6-.9-.8-.3-1.7-.7-2.5-1-.8-.3-1.6-.7-2.3-1-.7-.3-1.4-.7-2.1-1-1.3-.6-2.5-1.3-3.6-1.9-1-.6-2-1-2.7-1.5,0,0-.1-.1-.2-.2-.8-.2-1.8-1.2-1.8-1.9s.7-1.5,1.5-1.5,1.7.4,2.6.9c.6.2,1.3.5,2.1.9,1.1.4,2.3.9,3.6,1.4.7.2,1.4.5,2.1.7.7.2,1.5.5,2.3.7.2,0,1.4,0,1.8-.2,2.7-1.1,7-4.4,9.3-6.4,3.7-3.3,2.2-5.3,2.7-6.4.7-.2,2.7,1.3,6.3-3.3,1.5-2,2.4-3.6,2.7-5.3.1-.6-.1-.8-.5-1.5.9.2,1,.4,1.5,0,1.2-.8,2.2-2.6,2.6-3.4.9-1.9-.2-3-1.1-4.4-.9-1.4-1.8-2.4-2.8-3.8-2.5-3.7-7.2-7.3-8.5-10.6-3-7.4,3.2-8.3-4.7-20.5-2-3.1-6.4-7.2-11.1-11-.5-.4-1-.7-1.5-1.1-.7-.5-1.4-.9-2.1-1.4-.7-.4-1.4-.8-2-1.2-.7-.4-1.3-.8-1.9-1.1-1.2-.7-2.4-1.3-3.5-1.8-.8-.4-1.4-.7-2.1-1-1-.4-2.1-1-2.4-1.4-.6-.6-.5-1.6,0-2.1.5-.5,1.9-.4,2.6,0,0,0,.2,0,.3,0,.8.2,1.8.6,2.9,1,.2,0,.5.2.8.3,0,0,.1,0,.2,0-2.1-2.6-5.6-7.2-3.5-11.5,2.2-4.5,7.8-11.9,7.9-15.1,0-.9-.7-1.1-1.3-.3-7.3,9.3-17.4,11.2-26.4,20.7-2.4,0,.5.4-2,.5-5.9.1-4-10.6-3.6-17.8.2-3.9,2.5-14.1-6.6-9-13.4,7.4-24.5,20.6-31,34.4-1.5,3.1-2.1,6.7-1.8,10.4.2.7.3,1.3.5,1.9.2.7.4,1.4.6,2.1.4,1.4.9,2.6,1.2,3.7.3.8.6,1.5.8,2.1.5,1,.8,2.2.8,2.7,0,.8-.7,1.5-1.5,1.4-.7,0-1.6-1-1.8-1.8,0,0-.1-.1-.2-.2-.4-.7-.9-1.7-1.4-2.7-.5-1.1-1.1-2.3-1.7-3.7-.2-.5-.4-1-.6-1.4-8.5,9.5-34.6,56.2,8.5,91.6,2.6,1.6,5.2,4.1,7.8,5.4,46.5,23.6,80.5-7.6,81.9-15.2,0-.5,0-1.3,0-2.3-.4,0-.7-.1-1.1-.2Z"/>
  <g>
    <path class="st0" d="M214.3,145h.6l1.6,3.9.5,1.5h.2l.6-1.8,1.6-3.6h3l-4.9,11.1h-.5l-1.8-3.9-.6-1.6h-.2l-.6,1.6-1.8,3.9h-.5l-4.9-11.1h2.9l1.6,3.6.6,1.8h.2l.6-1.5,1.7-3.9Z"/>
    <path class="st0" d="M234.5,151.6h-4.9v2.2h6.1v2.3h-8.8v-11.1h8.8v2.3h-6.1v2.2h4.9v2.1Z"/>
    <path class="st0" d="M246.6,156.1h-5.6v-11.1h5.5c2.7,0,4.1,1.1,4.1,3s-.4,1.7-1.2,2.1v.3c1,.4,1.6,1.3,1.6,2.3,0,2.1-1.6,3.3-4.3,3.3ZM246.4,147.3h-2.8v2.2h2.8c.9,0,1.3-.5,1.3-1.1s-.4-1.1-1.3-1.1ZM243.6,151.3v2.4h3c.8,0,1.3-.6,1.3-1.2s-.5-1.2-1.3-1.2h-3Z"/>
    <path class="st0" d="M264.1,150l-.3-.3c-.6-.6-.9-1.3-.9-2.1,0-1.6,1.3-2.9,3.6-2.9s3.7,1.3,3.7,2.9-1,2.5-2.1,3l1.5,1.4c.2-.5.4-1,.4-1.5v-.4h2.6v.4c0,1.2-.4,2.3-1.1,3.3l2.2,2v.2h-3.2l-.7-.6c-.9.6-1.9.9-3.1.9-3.3,0-4.6-1.5-4.6-3.4s1-2.3,2.1-2.8ZM267.9,153.7l-2.1-2c-.5.3-.9.6-.9,1.1s.5,1.2,1.7,1.2.9,0,1.3-.3ZM266.3,149.2c.8-.3,1.4-.7,1.4-1.3s-.4-.9-1.1-.9-1.1.4-1.1.9.2.7.9,1.3Z"/>
    <path class="st0" d="M288,151.5h.1l.8-2,2.1-4.6h3.1l-5.8,11.1h-.5l-5.8-11.1h3l2.1,4.6.9,2Z"/>
    <path class="st0" d="M301.1,156.1h-2.7v-11.1h2.7v11.1Z"/>
    <path class="st0" d="M307.6,152.8s1.6,1.1,3.2,1.1,1.4-.4,1.4-.9-.4-.9-2.1-1.3c-2.4-.7-3.8-1.6-3.8-3.4s1.4-3.4,4.5-3.4,4.3,1.2,4.3,1.2l-1.4,2.2s-1.2-.9-2.9-.9-1.4.4-1.4.8.5.8,1.9,1.1c2.6.7,4,1.6,4,3.5s-1.4,3.7-4.5,3.7-4.8-1.5-4.8-1.5l1.5-2.1Z"/>
    <path class="st0" d="M320.3,151.3v-6.3h2.7v6.3c0,1.3.8,2.4,2.4,2.4s2.4-1.1,2.4-2.4v-6.3h2.7v6.3c0,2.9-1.9,5-5.1,5s-5.1-2.2-5.1-5Z"/>
    <path class="st0" d="M339.9,145h.4l5.8,11.1h-3l-.6-1.3h-4.8l-.6,1.3h-3l5.8-11.1ZM340.2,149.7h-.1l-1.4,2.9-.2.3h3.2l-.2-.3-1.4-2.9Z"/>
    <path class="st0" d="M350.5,156.1v-11.1h2.7v8.8h5.7v2.3h-8.3Z"/>
    <path class="st0" d="M378.7,155s-1.2,1.4-4,1.4-6-2.6-6-5.8,2.2-5.8,6-5.8,4,1.4,4,1.4l-1.5,2.1s-1.1-.8-2.4-.8c-1.9,0-3.2,1.3-3.2,3.2s1.3,3.2,3.2,3.2,2.4-.8,2.4-.8l1.5,2.1Z"/>
    <path class="st0" d="M383.5,145h5.2c2.8,0,4.6,1.4,4.6,3.9s-.7,2.7-1.9,3.3v.2l2.5,3.5v.2h-3.1l-2.2-3.2h-2.6v3.2h-2.7v-11.1ZM388.6,147.3h-2.4v3.3h2.5c1.2,0,1.9-.6,1.9-1.7s-.7-1.7-1.9-1.7Z"/>
    <path class="st0" d="M403.1,145h.4l5.8,11.1h-3l-.6-1.3h-4.8l-.6,1.3h-3l5.8-11.1ZM403.4,149.7h-.1l-1.4,2.9-.2.3h3.2l-.2-.3-1.4-2.9Z"/>
    <path class="st0" d="M413.7,145h8.8v2.3h-6.2v2.2h5.2v2.1h-5.2v4.5h-2.7v-11.1Z"/>
    <path class="st0" d="M426.5,145h9.7v2.3h-3.5v8.8h-2.7v-8.8h-3.5v-2.3Z"/>
  </g>
</svg>