<?xml version="1.0" encoding="UTF-8"?>
<svg id="Layer_1" xmlns="http://www.w3.org/2000/svg" baseProfile="tiny" version="1.2" viewBox="0 0 500 173.9">
  <!-- Generator: Adobe Illustrator 29.4.0, SVG Export Plug-In . SVG Version: 2.1.0 Build 152)  -->
  <g>
    <path d="M192.4,131s-5.5,6-17.4,6-26.3-11.5-26.3-25.5,9.9-25.5,26.3-25.5,17.4,6,17.4,6l-6.8,9s-5.1-3.7-10.5-3.7c-8.3,0-14.2,5.7-14.2,14.2s5.9,14.2,14.2,14.2,10.5-3.7,10.5-3.7l6.8,9Z" fill="currentColor"/>
    <path d="M213.8,135.8h-11.8v-48.9h11.8v48.9Z" fill="currentColor"/>
    <path d="M273.9,135.8h-2.7l-31.6-27v27h-11.7v-48.9h2.7l31.6,25.9v-25.8h11.7v48.8Z" fill="currentColor"/>
    <path d="M321.3,116h-21.5v9.6h27.1v10.2h-38.9v-48.9h38.9v10.2h-27.1v9.6h21.5v9.3Z" fill="currentColor"/>
    <path d="M338.2,86.9h23.1c12.4,0,20.3,6.4,20.3,17s-3.1,11.7-8.2,14.6v1.1l11,15.4v.8h-13.5l-9.6-14.3h-11.3v14.3h-11.8v-48.9ZM360.8,97.1h-10.8v14.7h10.8c5.5,0,8.5-2.4,8.5-7.3s-3.1-7.3-8.6-7.3Z" fill="currentColor"/>
    <path d="M427.8,116h-21.5v9.6h27.1v10.2h-38.9v-48.9h38.9v10.2h-27.1v9.6h21.5v9.3Z" fill="currentColor"/>
    <path d="M440.7,111.4c0-14,9.9-25.5,26.1-25.5s26.3,11.5,26.3,25.5-9.9,25.5-26.3,25.5-26.1-11.5-26.1-25.5ZM480.8,111.4c0-8.5-6.1-14.1-14-14.1s-13.9,5.6-13.9,14.1,6.1,14.1,13.9,14.1,14-5.6,14-14.1Z" fill="currentColor"/>
  </g>
  <path d="M123.7,141.2c-1-.2-2-.4-3.1-.7-1-.2-2-.5-3-.8-2-.5-3.9-1.2-5.8-1.8-.9-.3-1.8-.7-2.7-1-.9-.3-1.7-.7-2.6-1-.8-.3-1.6-.7-2.4-1.1-.8-.3-1.5-.7-2.2-1-1.4-.7-2.7-1.3-3.8-1.9-1.1-.6-2.1-1.1-2.8-1.6,0,0-.2-.1-.2-.2-.8-.2-1.9-1.2-1.9-2s.7-1.6,1.6-1.6,1.8.4,2.7.9c.7.3,1.4.6,2.2.9,1.1.4,2.4,1,3.8,1.4.7.3,1.4.5,2.2.7.8.2,1.5.5,2.4.7.2,0,1.4,0,1.9-.2,2.8-1.1,7.3-4.6,9.7-6.7,3.9-3.4,2.3-5.6,2.8-6.7.7-.2,2.8,1.4,6.6-3.5,1.6-2,2.5-3.7,2.8-5.5.1-.7-.2-.8-.5-1.5.9.2,1,.4,1.6,0,1.3-.8,2.3-2.7,2.8-3.5,1-1.9-.2-3.1-1.1-4.6-.9-1.5-1.9-2.5-2.9-3.9-2.6-3.9-7.5-7.7-8.9-11.1-3.2-7.7,3.3-8.6-4.9-21.4-2.1-3.3-6.6-7.6-11.6-11.5-.5-.4-1.1-.8-1.6-1.1-.7-.5-1.5-1-2.2-1.4-.7-.5-1.4-.9-2.1-1.3-.7-.4-1.4-.8-2-1.1-1.3-.7-2.5-1.3-3.6-1.9-.8-.4-1.5-.7-2.2-1-1-.4-2.2-1-2.5-1.4-.6-.6-.5-1.6.1-2.2.6-.5,2-.4,2.7,0,0,0,.2,0,.3,0,.9.2,1.9.6,3,1,.3,0,.5.2.8.3,0,0,.1,0,.2,0-2.2-2.7-5.8-7.5-3.7-12,2.2-4.7,8.1-12.5,8.2-15.8,0-.9-.7-1.1-1.3-.3-7.6,9.7-18.1,11.7-27.6,21.6-2.5,0,.5.5-2,.5-6.2.1-4.2-11.1-3.8-18.6.2-4.1,2.6-14.7-6.9-9.4-14,7.8-25.6,21.5-32.4,36-1.5,3.2-2.2,7-1.9,10.9.2.7.3,1.4.5,2,.2.8.4,1.5.7,2.2.4,1.4.9,2.7,1.3,3.9.3.8.6,1.6.8,2.2.5,1,.8,2.3.8,2.8,0,.9-.8,1.5-1.6,1.5-.8,0-1.7-1.1-1.9-1.9,0,0-.1-.2-.2-.2-.4-.8-.9-1.7-1.5-2.9-.5-1.1-1.2-2.4-1.8-3.8-.2-.5-.4-1-.7-1.5-8.9,9.9-36.1,58.7,8.8,95.8,2.7,1.7,5.5,4.3,8.1,5.7,48.6,24.6,84.1-7.9,85.6-15.8,0-.5,0-1.4,0-2.4-.4,0-.8-.1-1.1-.2Z" fill="currentColor"/>
  <g>
    <path d="M189.9,148h.5l1.6,3.7.5,1.4h.2l.5-1.7,1.5-3.4h2.8l-4.6,10.5h-.5l-1.7-3.7-.6-1.5h-.2l-.6,1.5-1.7,3.7h-.5l-4.6-10.5h2.8l1.5,3.4.5,1.7h.2l.5-1.4,1.6-3.7Z" fill="currentColor"/>
    <path d="M212.5,154.3h-4.6v2.1h5.8v2.2h-8.4v-10.5h8.4v2.2h-5.8v2.1h4.6v2Z" fill="currentColor"/>
    <path d="M227.4,158.5h-5.3v-10.5h5.2c2.6,0,3.8,1.1,3.8,2.9s-.4,1.6-1.2,2v.3c.9.4,1.5,1.2,1.5,2.2,0,2-1.5,3.1-4,3.1ZM227.2,150.2h-2.6v2.1h2.6c.8,0,1.2-.5,1.2-1.1s-.4-1.1-1.2-1.1ZM224.6,154.1v2.3h2.9c.8,0,1.2-.5,1.2-1.1s-.4-1.2-1.2-1.2h-2.9Z" fill="currentColor"/>
    <path d="M250.9,152.8l-.3-.3c-.6-.5-.8-1.2-.8-2,0-1.5,1.2-2.8,3.4-2.8s3.5,1.2,3.5,2.8-1,2.3-2,2.9l1.5,1.4c.2-.4.4-.9.4-1.5v-.4h2.4v.4c0,1.1-.4,2.2-1.1,3.1l2,1.9v.2h-3l-.6-.6c-.8.5-1.8.8-2.9.8-3.1,0-4.4-1.4-4.4-3.3s.9-2.2,2-2.7ZM254.5,156.3l-2-1.9c-.5.3-.8.6-.8,1.1s.5,1.1,1.6,1.1.9,0,1.3-.3ZM253,152c.8-.3,1.3-.6,1.3-1.2s-.4-.9-1.1-.9-1.1.4-1.1.9.2.7.9,1.2Z" fill="currentColor"/>
    <path d="M280.6,154.2h.1l.8-1.9,2-4.3h2.9l-5.5,10.5h-.5l-5.5-10.5h2.8l2,4.3.8,1.9Z" fill="currentColor"/>
    <path d="M296.4,158.5h-2.5v-10.5h2.5v10.5Z" fill="currentColor"/>
    <path d="M306,155.4s1.5,1,3.1,1,1.3-.4,1.3-.9-.4-.8-2-1.3c-2.3-.6-3.6-1.5-3.6-3.2s1.4-3.3,4.2-3.3,4.1,1.1,4.1,1.1l-1.4,2.1s-1.1-.9-2.7-.9-1.3.3-1.3.8.5.7,1.8,1.1c2.5.6,3.8,1.6,3.8,3.3s-1.3,3.5-4.2,3.5-4.5-1.4-4.5-1.4l1.4-1.9Z" fill="currentColor"/>
    <path d="M321.5,154v-6h2.5v6c0,1.2.8,2.3,2.3,2.3s2.3-1.1,2.3-2.3v-6h2.5v6c0,2.7-1.8,4.8-4.8,4.8s-4.8-2-4.8-4.8Z" fill="currentColor"/>
    <path d="M343.6,148h.4l5.5,10.5h-2.9l-.6-1.2h-4.6l-.6,1.2h-2.9l5.5-10.5ZM343.9,152.5h-.1l-1.3,2.7-.2.3h3l-.2-.3-1.3-2.7Z" fill="currentColor"/>
    <path d="M357.1,158.5v-10.5h2.5v8.3h5.3v2.2h-7.9Z" fill="currentColor"/>
    <path d="M390.7,157.5s-1.2,1.3-3.7,1.3-5.6-2.5-5.6-5.5,2.1-5.5,5.6-5.5,3.7,1.3,3.7,1.3l-1.5,1.9s-1.1-.8-2.3-.8c-1.8,0-3,1.2-3,3s1.3,3,3,3,2.3-.8,2.3-.8l1.5,1.9Z" fill="currentColor"/>
    <path d="M398.7,148h5c2.7,0,4.4,1.4,4.4,3.7s-.7,2.5-1.8,3.1v.2l2.4,3.3v.2h-2.9l-2.1-3.1h-2.4v3.1h-2.5v-10.5ZM403.6,150.2h-2.3v3.2h2.3c1.2,0,1.8-.5,1.8-1.6s-.7-1.6-1.8-1.6Z" fill="currentColor"/>
    <path d="M420.8,148h.4l5.5,10.5h-2.9l-.6-1.2h-4.6l-.6,1.2h-2.9l5.5-10.5ZM421.1,152.5h-.1l-1.3,2.7-.2.3h3l-.2-.3-1.3-2.7Z" fill="currentColor"/>
    <path d="M434.3,148h8.4v2.2h-5.8v2.1h4.9v2h-4.9v4.3h-2.5v-10.5Z" fill="currentColor"/>
    <path d="M449.9,148h9.1v2.2h-3.3v8.3h-2.5v-8.3h-3.3v-2.2Z" fill="currentColor"/>
  </g>
</svg>